<svg xmlns="http://www.w3.org/2000/svg" viewBox="0 0 786.69 174.45" style="enable-background:new 0 0 786.69 174.45" xml:space="preserve"><path d="M786.69 168.99h-21.42l-36.54-43.55-36.35 43.55H671.1l46.97-56.26-44.54-53.07h21.42l33.79 40.28 33.63-40.28h21.28l-44.23 52.99 47.27 56.34zm-323.3 2.73c-33.63 0-43.73-8.2-43.73-8.2V5h16.4v57.63c6.07-3 14.81-5.7 27.33-5.7 33.21 0 60.13 24.18 60.13 57.4 0 33.21-26.92 57.39-60.13 57.39zm0-98.39c-11.38 0-20.72 4.36-27.33 8.86v67.67s8.8 5.47 27.33 5.47c24.15 0 43.73-16.85 43.73-41 0-24.16-19.58-41-43.73-41zM364.99 5h16.4v163.99h-16.4V5zm-38.26 0v163.99h-16.4V5h16.4zm-63.2 24.6c-7.55 0-13.67-6.12-13.67-13.67 0-7.54 6.11-13.67 13.67-13.67 7.54 0 13.67 6.12 13.67 13.67-.01 7.54-6.13 13.67-13.67 13.67zM209.2 168.99l-57.4-57.4 51.93-51.93h23.19l-51.93 51.93 57.4 57.4H209.2zm-73.8 0V5h16.4v164h-16.4v-.01zm-25.97-44.61c0 27.4-21.83 47.28-56.5 47.28-22.43 0-39.89-11.09-52.93-23.77l11.6-12.81c10.85 10.33 23.61 20.38 41.1 20.38 19.43 0 40.37-10.89 40.37-30.46 0-16.24-12.92-26.83-40.05-35.19C22.11 80.35 6.41 67.53 6.41 43.44 6.41 19.58 26.6 0 55.36 0c21.48 0 34.94 9.16 48.02 20.87L91.99 33.52C80.51 23.35 69.58 16.46 56.16 16.46c-16.64 0-33.03 10.72-33.03 26.17 0 14.01 8.04 22.91 36.42 31.61 26 8.02 49.88 20.43 49.88 50.14zm162.63 44.61h-16.4V59.66h16.4v109.33zm330.72 5.46c-33.21 0-60.13-26.92-60.13-60.13s26.92-60.13 60.13-60.13 60.13 26.92 60.13 60.13c0 33.22-26.91 60.13-60.13 60.13zm0-103.86c-24.15 0-43.73 19.58-43.73 43.73s19.58 43.73 43.73 43.73 43.73-19.58 43.73-43.73-19.58-43.73-43.73-43.73z" style="fill-rule:evenodd;clip-rule:evenodd"/></svg>